<?xml version="1.0" encoding="UTF-8" standalone="no"?>
<!DOCTYPE svg PUBLIC "-//W3C//DTD SVG 1.1//EN"
 "http://www.w3.org/Graphics/SVG/1.1/DTD/svg11.dtd">
<!-- Generated by graphviz version 2.47.0 (20210316.0004)
 -->
<!-- Title: Philosophers Pages: 1 -->
<svg width="504pt" height="317pt"
 viewBox="0.00 0.00 504.00 316.84" xmlns="http://www.w3.org/2000/svg" xmlns:xlink="http://www.w3.org/1999/xlink">
<g id="graph0" class="graph" transform="scale(0.38 0.38) rotate(0) translate(4 824)">
<title>Philosophers</title>
<polygon fill="white" stroke="transparent" points="-4,4 -4,-824 1313.1,-824 1313.1,4 -4,4"/>
<!-- 400 -->
<g id="node1" class="node">
<title>400</title>
<text text-anchor="middle" x="27" y="-795.8" font-family="Times New Roman,serif" font-size="24.00">400</text>
</g>
<!-- 350 -->
<g id="node2" class="node">
<title>350</title>
<text text-anchor="middle" x="27" y="-563.8" font-family="Times New Roman,serif" font-size="24.00">350</text>
</g>
<!-- 400&#45;&gt;350 -->
<g id="edge1" class="edge">
<title>400&#45;&gt;350</title>
<path fill="none" stroke="black" d="M27,-783.71C27,-744.07 27,-646.36 27,-598.42"/>
<polygon fill="black" stroke="black" points="30.5,-598.17 27,-588.17 23.5,-598.17 30.5,-598.17"/>
</g>
<!-- 300 -->
<g id="node3" class="node">
<title>300</title>
<text text-anchor="middle" x="27" y="-251.8" font-family="Times New Roman,serif" font-size="24.00">300</text>
</g>
<!-- 350&#45;&gt;300 -->
<g id="edge2" class="edge">
<title>350&#45;&gt;300</title>
<path fill="none" stroke="black" d="M27,-551.89C27,-500.76 27,-348.79 27,-286.3"/>
<polygon fill="black" stroke="black" points="30.5,-286.06 27,-276.06 23.5,-286.06 30.5,-286.06"/>
</g>
<!-- 250 -->
<g id="node4" class="node">
<title>250</title>
<text text-anchor="middle" x="27" y="-83.8" font-family="Times New Roman,serif" font-size="24.00">250</text>
</g>
<!-- 300&#45;&gt;250 -->
<g id="edge3" class="edge">
<title>300&#45;&gt;250</title>
<path fill="none" stroke="black" d="M27,-239.86C27,-211.16 27,-153.13 27,-118.61"/>
<polygon fill="black" stroke="black" points="30.5,-118.3 27,-108.3 23.5,-118.3 30.5,-118.3"/>
</g>
<!-- 200 -->
<g id="node5" class="node">
<title>200</title>
<text text-anchor="middle" x="27" y="-11.8" font-family="Times New Roman,serif" font-size="24.00">200</text>
</g>
<!-- 250&#45;&gt;200 -->
<g id="edge4" class="edge">
<title>250&#45;&gt;200</title>
<path fill="none" stroke="black" d="M27,-71.7C27,-63.98 27,-54.71 27,-46.11"/>
<polygon fill="black" stroke="black" points="30.5,-46.1 27,-36.1 23.5,-46.1 30.5,-46.1"/>
</g>
<!-- SOCRATES -->
<g id="node6" class="node">
<title>SOCRATES</title>
<polygon fill="none" stroke="black" points="736.5,-820 617.5,-820 617.5,-784 736.5,-784 736.5,-820"/>
<text text-anchor="middle" x="677" y="-797" font-family="Times New Roman,serif" font-size="20.00">SOCRATES</text>
</g>
<!-- PLATO -->
<g id="node13" class="node">
<title>PLATO</title>
<polygon fill="none" stroke="black" points="778,-748 698,-748 698,-712 778,-712 778,-748"/>
<text text-anchor="middle" x="738" y="-725" font-family="Times New Roman,serif" font-size="20.00">PLATO</text>
</g>
<!-- SOCRATES&#45;&gt;PLATO -->
<g id="edge9" class="edge">
<title>SOCRATES&#45;&gt;PLATO</title>
<path fill="none" stroke="black" d="M692.08,-783.7C699.39,-775.3 708.31,-765.07 716.34,-755.86"/>
<polygon fill="black" stroke="black" points="719.16,-757.94 723.09,-748.1 713.89,-753.34 719.16,-757.94"/>
</g>
<!-- (Isocrates)&#45;rh -->
<g id="node14" class="node">
<title>(Isocrates)&#45;rh</title>
<polygon fill="none" stroke="black" points="679.5,-748 554.5,-748 554.5,-712 679.5,-712 679.5,-748"/>
<text text-anchor="middle" x="617" y="-725" font-family="Times New Roman,serif" font-size="20.00">(Isocrates)&#45;rh</text>
</g>
<!-- SOCRATES&#45;&gt;(Isocrates)&#45;rh -->
<g id="edge10" class="edge">
<title>SOCRATES&#45;&gt;(Isocrates)&#45;rh</title>
<path fill="none" stroke="black" d="M662.17,-783.7C654.98,-775.3 646.2,-765.07 638.31,-755.86"/>
<polygon fill="black" stroke="black" points="640.83,-753.42 631.66,-748.1 635.51,-757.97 640.83,-753.42"/>
</g>
<!-- Antisthenes -->
<g id="node15" class="node">
<title>Antisthenes</title>
<polygon fill="none" stroke="black" points="528.5,-748 415.5,-748 415.5,-712 528.5,-712 528.5,-748"/>
<text text-anchor="middle" x="472" y="-725" font-family="Times New Roman,serif" font-size="20.00">Antisthenes</text>
</g>
<!-- SOCRATES&#45;&gt;Antisthenes -->
<g id="edge11" class="edge">
<title>SOCRATES&#45;&gt;Antisthenes</title>
<path fill="none" stroke="black" d="M627.11,-783.97C598.35,-774.14 561.99,-761.73 531.71,-751.39"/>
<polygon fill="black" stroke="black" points="532.7,-748.03 522.11,-748.11 530.44,-754.65 532.7,-748.03"/>
</g>
<!-- Aristippus -->
<g id="node16" class="node">
<title>Aristippus</title>
<polygon fill="none" stroke="black" points="369.5,-748 268.5,-748 268.5,-712 369.5,-712 369.5,-748"/>
<text text-anchor="middle" x="319" y="-725" font-family="Times New Roman,serif" font-size="20.00">Aristippus</text>
</g>
<!-- SOCRATES&#45;&gt;Aristippus -->
<g id="edge12" class="edge">
<title>SOCRATES&#45;&gt;Aristippus</title>
<path fill="none" stroke="black" d="M617.48,-789.36C551.57,-776.48 445.89,-755.81 379.57,-742.84"/>
<polygon fill="black" stroke="black" points="380.16,-739.39 369.68,-740.91 378.82,-746.26 380.16,-739.39"/>
</g>
<!-- Phaedo -->
<g id="node17" class="node">
<title>Phaedo</title>
<polygon fill="none" stroke="black" points="1150.5,-748 1073.5,-748 1073.5,-712 1150.5,-712 1150.5,-748"/>
<text text-anchor="middle" x="1112" y="-725" font-family="Times New Roman,serif" font-size="20.00">Phaedo</text>
</g>
<!-- SOCRATES&#45;&gt;Phaedo -->
<g id="edge13" class="edge">
<title>SOCRATES&#45;&gt;Phaedo</title>
<path fill="none" stroke="black" d="M736.57,-791.41C823.31,-777.46 982.75,-751.8 1063.05,-738.88"/>
<polygon fill="black" stroke="black" points="1064.06,-742.26 1073.38,-737.22 1062.95,-735.35 1064.06,-742.26"/>
</g>
<!-- Euclides -->
<g id="node18" class="node">
<title>Euclides</title>
<polygon fill="none" stroke="black" points="1148.5,-676 1049.5,-676 1049.5,-624 1148.5,-624 1148.5,-676"/>
<text text-anchor="middle" x="1099" y="-656" font-family="Times New Roman,serif" font-size="20.00">Euclides</text>
<text text-anchor="middle" x="1099" y="-634" font-family="Times New Roman,serif" font-size="20.00">of Megara</text>
</g>
<!-- SOCRATES&#45;&gt;Euclides -->
<g id="edge14" class="edge">
<title>SOCRATES&#45;&gt;Euclides</title>
<path fill="none" stroke="black" d="M730.32,-783.92C799.58,-761.45 924.3,-720.03 1039.84,-675.97"/>
<polygon fill="black" stroke="black" points="1041.12,-679.23 1049.21,-672.39 1038.61,-672.69 1041.12,-679.23"/>
</g>
<!-- DEMOCRITUS -->
<g id="node7" class="node">
<title>DEMOCRITUS</title>
<polygon fill="none" stroke="black" points="232,-820 86,-820 86,-784 232,-784 232,-820"/>
<text text-anchor="middle" x="159" y="-797" font-family="Times New Roman,serif" font-size="20.00">DEMOCRITUS</text>
</g>
<!-- 40 -->
<g id="node10" class="node">
<title>40</title>
<polygon fill="none" stroke="black" points="196,-748 142,-748 142,-712 196,-712 196,-748"/>
<text text-anchor="middle" x="169" y="-725" font-family="Times New Roman,serif" font-size="20.00">40</text>
</g>
<!-- DEMOCRITUS&#45;&gt;40 -->
<g id="edge5" class="edge">
<title>DEMOCRITUS&#45;&gt;40</title>
<path fill="none" stroke="black" d="M161.47,-783.7C162.57,-775.98 163.9,-766.71 165.13,-758.11"/>
<polygon fill="black" stroke="black" points="168.61,-758.5 166.56,-748.1 161.68,-757.51 168.61,-758.5"/>
</g>
<!-- 39 -->
<g id="node51" class="node">
<title>39</title>
<polygon fill="none" stroke="black" points="124,-748 70,-748 70,-712 124,-712 124,-748"/>
<text text-anchor="middle" x="97" y="-725" font-family="Times New Roman,serif" font-size="20.00">39</text>
</g>
<!-- DEMOCRITUS&#45;&gt;39 -->
<g id="edge61" class="edge">
<title>DEMOCRITUS&#45;&gt;39</title>
<path fill="none" stroke="black" stroke-dasharray="1,5" d="M143.67,-783.7C136.24,-775.3 127.18,-765.07 119.02,-755.86"/>
<polygon fill="black" stroke="black" points="121.4,-753.27 112.15,-748.1 116.16,-757.91 121.4,-753.27"/>
</g>
<!-- EPICURUS -->
<g id="node8" class="node">
<title>EPICURUS</title>
<polygon fill="none" stroke="black" points="299.5,-276 186.5,-276 186.5,-240 299.5,-240 299.5,-276"/>
<text text-anchor="middle" x="243" y="-253" font-family="Times New Roman,serif" font-size="20.00">EPICURUS</text>
</g>
<!-- CHRYSIPPUS -->
<g id="node9" class="node">
<title>CHRYSIPPUS</title>
<polygon fill="none" stroke="black" points="822,-36 654,-36 654,0 822,0 822,-36"/>
<text text-anchor="middle" x="738" y="-13" font-family="Times New Roman,serif" font-size="20.00">CHRYSIPPUS(St)</text>
</g>
<!-- 57(at) -->
<g id="node11" class="node">
<title>57(at)</title>
<polygon fill="none" stroke="black" points="199,-516 133,-516 133,-480 199,-480 199,-516"/>
<text text-anchor="middle" x="166" y="-493" font-family="Times New Roman,serif" font-size="20.00">57(at)</text>
</g>
<!-- 40&#45;&gt;57(at) -->
<g id="edge6" class="edge">
<title>40&#45;&gt;57(at)</title>
<path fill="none" stroke="black" d="M168.77,-711.71C168.26,-672.07 166.98,-574.36 166.36,-526.42"/>
<polygon fill="black" stroke="black" points="169.85,-526.13 166.22,-516.17 162.85,-526.22 169.85,-526.13"/>
</g>
<!-- PYRRHO -->
<g id="node12" class="node">
<title>PYRRHO</title>
<polygon fill="none" stroke="black" points="292,-436 194,-436 194,-400 292,-400 292,-436"/>
<text text-anchor="middle" x="243" y="-413" font-family="Times New Roman,serif" font-size="20.00">PYRRHO</text>
</g>
<!-- 57(at)&#45;&gt;PYRRHO -->
<g id="edge7" class="edge">
<title>57(at)&#45;&gt;PYRRHO</title>
<path fill="none" stroke="black" d="M183.09,-479.69C193.56,-469.09 207.12,-455.35 218.69,-443.62"/>
<polygon fill="black" stroke="black" points="221.42,-445.84 225.96,-436.26 216.44,-440.92 221.42,-445.84"/>
</g>
<!-- 58(at) -->
<g id="node25" class="node">
<title>58(at)</title>
<polygon fill="none" stroke="black" points="207,-356 141,-356 141,-320 207,-320 207,-356"/>
<text text-anchor="middle" x="174" y="-333" font-family="Times New Roman,serif" font-size="20.00">58(at)</text>
</g>
<!-- 57(at)&#45;&gt;58(at) -->
<g id="edge65" class="edge">
<title>57(at)&#45;&gt;58(at)</title>
<path fill="none" stroke="black" stroke-dasharray="1,5" d="M166.87,-479.79C168.25,-452.48 170.96,-398.99 172.61,-366.38"/>
<polygon fill="black" stroke="black" points="176.12,-366.35 173.13,-356.19 169.13,-366 176.12,-366.35"/>
</g>
<!-- PYRRHO&#45;&gt;EPICURUS -->
<g id="edge8" class="edge">
<title>PYRRHO&#45;&gt;EPICURUS</title>
<path fill="none" stroke="black" d="M243,-399.79C243,-372.48 243,-318.99 243,-286.38"/>
<polygon fill="black" stroke="black" points="246.5,-286.19 243,-276.19 239.5,-286.19 246.5,-286.19"/>
</g>
<!-- PYRRHO&#45;&gt;58(at) -->
<g id="edge22" class="edge">
<title>PYRRHO&#45;&gt;58(at)</title>
<path fill="none" stroke="black" d="M227.69,-399.69C218.4,-389.19 206.38,-375.61 196.08,-363.96"/>
<polygon fill="black" stroke="black" points="198.52,-361.43 189.27,-356.26 193.27,-366.07 198.52,-361.43"/>
</g>
<!-- Timon -->
<g id="node49" class="node">
<title>Timon</title>
<polygon fill="none" stroke="black" points="357,-356 287,-356 287,-320 357,-320 357,-356"/>
<text text-anchor="middle" x="322" y="-333" font-family="Times New Roman,serif" font-size="20.00">Timon</text>
</g>
<!-- PYRRHO&#45;&gt;Timon -->
<g id="edge57" class="edge">
<title>PYRRHO&#45;&gt;Timon</title>
<path fill="none" stroke="black" d="M260.53,-399.69C271.27,-389.09 285.19,-375.35 297.06,-363.62"/>
<polygon fill="black" stroke="black" points="299.86,-365.78 304.52,-356.26 294.94,-360.8 299.86,-365.78"/>
</g>
<!-- PLATO&#45;&gt;Euclides -->
<g id="edge71" class="edge">
<title>PLATO&#45;&gt;Euclides</title>
<path fill="none" stroke="black" stroke-dasharray="1,5" d="M778.24,-724.88C836.76,-718.24 948.36,-703.07 1040,-676 1043.09,-675.09 1046.24,-674.06 1049.4,-672.95"/>
</g>
<!-- ARISTOTLE -->
<g id="node19" class="node">
<title>ARISTOTLE</title>
<polygon fill="none" stroke="black" points="872.5,-588 747.5,-588 747.5,-552 872.5,-552 872.5,-588"/>
<text text-anchor="middle" x="810" y="-565" font-family="Times New Roman,serif" font-size="20.00">ARISTOTLE</text>
</g>
<!-- PLATO&#45;&gt;ARISTOTLE -->
<g id="edge15" class="edge">
<title>PLATO&#45;&gt;ARISTOTLE</title>
<path fill="none" stroke="black" d="M743.2,-711.83C749.87,-690.67 762.35,-653.85 777,-624 781.54,-614.76 787.25,-605.07 792.64,-596.55"/>
<polygon fill="black" stroke="black" points="795.58,-598.45 798.08,-588.16 789.71,-594.65 795.58,-598.45"/>
</g>
<!-- Eudoxus -->
<g id="node26" class="node">
<title>Eudoxus</title>
<polygon fill="none" stroke="black" points="782,-516 620,-516 620,-480 782,-480 782,-516"/>
<text text-anchor="middle" x="701" y="-493" font-family="Times New Roman,serif" font-size="20.00">Eudoxus(Ac,mth)</text>
</g>
<!-- PLATO&#45;&gt;Eudoxus -->
<g id="edge72" class="edge">
<title>PLATO&#45;&gt;Eudoxus</title>
<path fill="none" stroke="black" stroke-dasharray="1,5" d="M735.22,-711.71C728.35,-668.98 710.62,-558.78 703.76,-516.17"/>
</g>
<!-- Heraclides
Poniticus -->
<g id="node30" class="node">
<title>Heraclides
Poniticus</title>
<polygon fill="none" stroke="black" points="888.5,-676 785.5,-676 785.5,-624 888.5,-624 888.5,-676"/>
<text text-anchor="middle" x="837" y="-656" font-family="Times New Roman,serif" font-size="20.00">Heraclides</text>
<text text-anchor="middle" x="837" y="-634" font-family="Times New Roman,serif" font-size="20.00">Poniticus</text>
</g>
<!-- PLATO&#45;&gt;Heraclides
Poniticus -->
<g id="edge26" class="edge">
<title>PLATO&#45;&gt;Heraclides
Poniticus</title>
<path fill="none" stroke="black" d="M759.97,-711.69C770.81,-703.15 784.24,-692.57 796.83,-682.65"/>
<polygon fill="black" stroke="black" points="799.25,-685.2 804.94,-676.26 794.92,-679.7 799.25,-685.2"/>
</g>
<!-- Speusippus(Ac) -->
<g id="node31" class="node">
<title>Speusippus(Ac)</title>
<polygon fill="none" stroke="black" points="653,-668 507,-668 507,-632 653,-632 653,-668"/>
<text text-anchor="middle" x="580" y="-645" font-family="Times New Roman,serif" font-size="20.00">Speusippus(Ac)</text>
</g>
<!-- PLATO&#45;&gt;Speusippus(Ac) -->
<g id="edge27" class="edge">
<title>PLATO&#45;&gt;Speusippus(Ac)</title>
<path fill="none" stroke="black" d="M703.33,-711.88C679.97,-700.35 648.96,-685.04 623.89,-672.67"/>
<polygon fill="black" stroke="black" points="625.11,-669.37 614.59,-668.08 622.01,-675.64 625.11,-669.37"/>
</g>
<!-- Xenocrates(Ac) -->
<g id="node32" class="node">
<title>Xenocrates(Ac)</title>
<polygon fill="none" stroke="black" points="652.5,-588 507.5,-588 507.5,-552 652.5,-552 652.5,-588"/>
<text text-anchor="middle" x="580" y="-565" font-family="Times New Roman,serif" font-size="20.00">Xenocrates(Ac)</text>
</g>
<!-- PLATO&#45;&gt;Xenocrates(Ac) -->
<g id="edge28" class="edge">
<title>PLATO&#45;&gt;Xenocrates(Ac)</title>
<path fill="none" stroke="black" d="M726.63,-711.71C709.36,-685.74 676.94,-638.17 662,-624 649.89,-612.52 634.97,-602.03 621.19,-593.47"/>
<polygon fill="black" stroke="black" points="622.71,-590.3 612.34,-588.13 619.1,-596.29 622.71,-590.3"/>
</g>
<!-- DIOGENES -->
<g id="node53" class="node">
<title>DIOGENES</title>
<polygon fill="none" stroke="black" points="489,-676 373,-676 373,-624 489,-624 489,-676"/>
<text text-anchor="middle" x="431" y="-656" font-family="Times New Roman,serif" font-size="20.00">DIOGENES</text>
<text text-anchor="middle" x="431" y="-634" font-family="Times New Roman,serif" font-size="20.00">of Sinope</text>
</g>
<!-- PLATO&#45;&gt;DIOGENES -->
<g id="edge76" class="edge">
<title>PLATO&#45;&gt;DIOGENES</title>
<path fill="none" stroke="black" stroke-width="2" d="M692.81,-713.05C691.53,-712.69 690.26,-712.33 689,-712 605.52,-689.78 581.21,-699.18 498,-676 496.74,-675.65 495.48,-675.29 494.21,-674.91"/>
<polygon fill="black" stroke="black" stroke-width="2" points="698.23,-709.44 695.39,-719.03 693.48,-718.46 696.31,-708.87 698.23,-709.44"/>
<polyline fill="none" stroke="black" stroke-width="2" points="697.77,-714.51 692.97,-713.1 "/>
<polygon fill="black" stroke="black" stroke-width="2" points="488.77,-678.49 491.68,-668.92 493.6,-669.5 490.69,-679.07 488.77,-678.49"/>
<polyline fill="none" stroke="black" stroke-width="2" points="489.27,-673.41 494.06,-674.87 "/>
</g>
<!-- Archytas(Py) -->
<g id="node57" class="node">
<title>Archytas(Py)</title>
<polygon fill="none" stroke="black" points="1031,-668 907,-668 907,-632 1031,-632 1031,-668"/>
<text text-anchor="middle" x="969" y="-645" font-family="Times New Roman,serif" font-size="20.00">Archytas(Py)</text>
</g>
<!-- PLATO&#45;&gt;Archytas(Py) -->
<g id="edge73" class="edge">
<title>PLATO&#45;&gt;Archytas(Py)</title>
<path fill="none" stroke="black" stroke-dasharray="1,5" d="M778.18,-715.92C810.58,-705.32 857.29,-689.91 898,-676 905.42,-673.47 913.26,-670.75 920.92,-668.07"/>
</g>
<!-- Antisthenes&#45;&gt;DIOGENES -->
<g id="edge64" class="edge">
<title>Antisthenes&#45;&gt;DIOGENES</title>
<path fill="none" stroke="black" stroke-dasharray="1,5" d="M462.9,-711.69C458.8,-703.88 453.8,-694.37 448.99,-685.22"/>
<polygon fill="black" stroke="black" points="452.03,-683.48 444.28,-676.26 445.83,-686.74 452.03,-683.48"/>
</g>
<!-- 48(Cr) -->
<g id="node35" class="node">
<title>48(Cr)</title>
<polygon fill="none" stroke="black" points="265.5,-668 194.5,-668 194.5,-632 265.5,-632 265.5,-668"/>
<text text-anchor="middle" x="230" y="-645" font-family="Times New Roman,serif" font-size="20.00">48(Cr)</text>
</g>
<!-- Aristippus&#45;&gt;48(Cr) -->
<g id="edge32" class="edge">
<title>Aristippus&#45;&gt;48(Cr)</title>
<path fill="none" stroke="black" d="M299.25,-711.69C286.92,-700.88 270.87,-686.82 257.33,-674.95"/>
<polygon fill="black" stroke="black" points="259.52,-672.22 249.7,-668.26 254.91,-677.49 259.52,-672.22"/>
</g>
<!-- 49(Cr) -->
<g id="node38" class="node">
<title>49(Cr)</title>
<polygon fill="none" stroke="black" points="354.5,-668 283.5,-668 283.5,-632 354.5,-632 354.5,-668"/>
<text text-anchor="middle" x="319" y="-645" font-family="Times New Roman,serif" font-size="20.00">49(Cr)</text>
</g>
<!-- Aristippus&#45;&gt;49(Cr) -->
<g id="edge35" class="edge">
<title>Aristippus&#45;&gt;49(Cr)</title>
<path fill="none" stroke="black" d="M319,-711.69C319,-701.89 319,-689.42 319,-678.33"/>
<polygon fill="black" stroke="black" points="322.5,-678.26 319,-668.26 315.5,-678.26 322.5,-678.26"/>
</g>
<!-- 53&#45;5(El) -->
<g id="node23" class="node">
<title>53&#45;5(El)</title>
<polygon fill="none" stroke="black" points="1304.5,-516 1217.5,-516 1217.5,-480 1304.5,-480 1304.5,-516"/>
<text text-anchor="middle" x="1261" y="-493" font-family="Times New Roman,serif" font-size="20.00">53&#45;5(El)</text>
</g>
<!-- Phaedo&#45;&gt;53&#45;5(El) -->
<g id="edge19" class="edge">
<title>Phaedo&#45;&gt;53&#45;5(El)</title>
<path fill="none" stroke="black" d="M1128.63,-711.54C1137.79,-701.52 1149.07,-688.49 1158,-676 1194.3,-625.25 1229.24,-560.9 1247.62,-525.44"/>
<polygon fill="black" stroke="black" points="1250.89,-526.74 1252.35,-516.25 1244.66,-523.54 1250.89,-526.74"/>
</g>
<!-- Eubulides(Mg) -->
<g id="node43" class="node">
<title>Eubulides(Mg)</title>
<polygon fill="none" stroke="black" points="1144,-588 1004,-588 1004,-552 1144,-552 1144,-588"/>
<text text-anchor="middle" x="1074" y="-565" font-family="Times New Roman,serif" font-size="20.00">Eubulides(Mg)</text>
</g>
<!-- Euclides&#45;&gt;Eubulides(Mg) -->
<g id="edge45" class="edge">
<title>Euclides&#45;&gt;Eubulides(Mg)</title>
<path fill="none" stroke="black" d="M1090.95,-623.89C1088.31,-615.66 1085.37,-606.48 1082.69,-598.1"/>
<polygon fill="black" stroke="black" points="1085.97,-596.87 1079.58,-588.41 1079.3,-599 1085.97,-596.87"/>
</g>
<!-- THEOPHRASTUS -->
<g id="node20" class="node">
<title>THEOPHRASTUS</title>
<polygon fill="none" stroke="black" points="896,-436 724,-436 724,-400 896,-400 896,-436"/>
<text text-anchor="middle" x="810" y="-413" font-family="Times New Roman,serif" font-size="20.00">THEOPHRASTUS</text>
</g>
<!-- ARISTOTLE&#45;&gt;THEOPHRASTUS -->
<g id="edge16" class="edge">
<title>ARISTOTLE&#45;&gt;THEOPHRASTUS</title>
<path fill="none" stroke="black" d="M810,-551.79C810,-525.91 810,-476.73 810,-446.03"/>
<polygon fill="black" stroke="black" points="813.5,-446.01 810,-436.01 806.5,-446.01 813.5,-446.01"/>
</g>
<!-- ARISTOTLE&#45;&gt;Eudoxus -->
<g id="edge75" class="edge">
<title>ARISTOTLE&#45;&gt;Eudoxus</title>
<path fill="none" stroke="black" stroke-dasharray="1,5" d="M783.34,-551.88C766.44,-541.03 744.68,-527.05 727.77,-516.19"/>
</g>
<!-- Strato -->
<g id="node21" class="node">
<title>Strato</title>
<polygon fill="none" stroke="black" points="902,-276 836,-276 836,-240 902,-240 902,-276"/>
<text text-anchor="middle" x="869" y="-253" font-family="Times New Roman,serif" font-size="20.00">Strato</text>
</g>
<!-- THEOPHRASTUS&#45;&gt;Strato -->
<g id="edge17" class="edge">
<title>THEOPHRASTUS&#45;&gt;Strato</title>
<path fill="none" stroke="black" d="M816.43,-399.79C826.67,-372.37 846.77,-318.53 858.93,-285.96"/>
<polygon fill="black" stroke="black" points="862.36,-286.78 862.58,-276.19 855.8,-284.33 862.36,-286.78"/>
</g>
<!-- ARCESILAUS -->
<g id="node29" class="node">
<title>ARCESILAUS</title>
<polygon fill="none" stroke="black" points="719.5,-276 516.5,-276 516.5,-240 719.5,-240 719.5,-276"/>
<text text-anchor="middle" x="618" y="-253" font-family="Times New Roman,serif" font-size="20.00">ARCESILAUS(Ac,Sk)</text>
</g>
<!-- THEOPHRASTUS&#45;&gt;ARCESILAUS -->
<g id="edge38" class="edge">
<title>THEOPHRASTUS&#45;&gt;ARCESILAUS</title>
<path fill="none" stroke="black" d="M772.76,-399.97C750.97,-389.06 723.58,-373.66 702,-356 676.08,-334.8 651.65,-305.06 635.88,-284.11"/>
<polygon fill="black" stroke="black" points="638.64,-281.96 629.88,-276 633.02,-286.12 638.64,-281.96"/>
</g>
<!-- 88(Ac) -->
<g id="node41" class="node">
<title>88(Ac)</title>
<polygon fill="none" stroke="black" points="785,-356 711,-356 711,-320 785,-320 785,-356"/>
<text text-anchor="middle" x="748" y="-333" font-family="Times New Roman,serif" font-size="20.00">88(Ac)</text>
</g>
<!-- THEOPHRASTUS&#45;&gt;88(Ac) -->
<g id="edge39" class="edge">
<title>THEOPHRASTUS&#45;&gt;88(Ac)</title>
<path fill="none" stroke="black" d="M796.24,-399.69C787.97,-389.29 777.31,-375.87 768.11,-364.29"/>
<polygon fill="black" stroke="black" points="770.68,-361.91 761.72,-356.26 765.2,-366.27 770.68,-361.91"/>
</g>
<!-- Crates(Cn) -->
<g id="node58" class="node">
<title>Crates(Cn)</title>
<polygon fill="none" stroke="black" points="985,-356 879,-356 879,-320 985,-320 985,-356"/>
<text text-anchor="middle" x="932" y="-333" font-family="Times New Roman,serif" font-size="20.00">Crates(Cn)</text>
</g>
<!-- THEOPHRASTUS&#45;&gt;Crates(Cn) -->
<g id="edge74" class="edge">
<title>THEOPHRASTUS&#45;&gt;Crates(Cn)</title>
<path fill="none" stroke="black" stroke-dasharray="1,5" d="M836.77,-399.88C857.11,-386.88 884.96,-369.07 905.29,-356.08"/>
</g>
<!-- Ariston -->
<g id="node22" class="node">
<title>Ariston</title>
<polygon fill="none" stroke="black" points="936,-196 820,-196 820,-144 936,-144 936,-196"/>
<text text-anchor="middle" x="878" y="-176" font-family="Times New Roman,serif" font-size="20.00">Ariston</text>
<text text-anchor="middle" x="878" y="-154" font-family="Times New Roman,serif" font-size="20.00">of Chios(St)</text>
</g>
<!-- Strato&#45;&gt;Ariston -->
<g id="edge18" class="edge">
<title>Strato&#45;&gt;Ariston</title>
<path fill="none" stroke="black" d="M870.82,-239.6C871.82,-230.05 873.1,-217.86 874.29,-206.41"/>
<polygon fill="black" stroke="black" points="877.8,-206.51 875.36,-196.2 870.84,-205.79 877.8,-206.51"/>
</g>
<!-- Cleanthes(St) -->
<g id="node50" class="node">
<title>Cleanthes(St)</title>
<polygon fill="none" stroke="black" points="942,-108 814,-108 814,-72 942,-72 942,-108"/>
<text text-anchor="middle" x="878" y="-85" font-family="Times New Roman,serif" font-size="20.00">Cleanthes(St)</text>
</g>
<!-- Ariston&#45;&gt;Cleanthes(St) -->
<g id="edge79" class="edge">
<title>Ariston&#45;&gt;Cleanthes(St)</title>
<path fill="none" stroke="black" stroke-width="2" d="M878,-138.63C878,-130.3 878,-121.43 878,-113.62"/>
<polygon fill="black" stroke="black" stroke-width="2" points="883,-142.89 873,-142.89 873,-140.89 883,-140.89 883,-142.89"/>
<polyline fill="none" stroke="black" stroke-width="2" points="878,-143.89 878,-138.89 "/>
<polygon fill="black" stroke="black" stroke-width="2" points="873,-109.41 883,-109.41 883,-111.41 873,-111.41 873,-109.41"/>
<polyline fill="none" stroke="black" stroke-width="2" points="878,-108.41 878,-113.41 "/>
</g>
<!-- Menedemus -->
<g id="node24" class="node">
<title>Menedemus</title>
<polygon fill="none" stroke="black" points="1291,-444 1175,-444 1175,-392 1291,-392 1291,-444"/>
<text text-anchor="middle" x="1233" y="-424" font-family="Times New Roman,serif" font-size="20.00">Menedemus</text>
<text text-anchor="middle" x="1233" y="-402" font-family="Times New Roman,serif" font-size="20.00">of Eretria</text>
</g>
<!-- 53&#45;5(El)&#45;&gt;Menedemus -->
<g id="edge20" class="edge">
<title>53&#45;5(El)&#45;&gt;Menedemus</title>
<path fill="none" stroke="black" d="M1254.79,-479.69C1252.04,-472.04 1248.71,-462.76 1245.49,-453.79"/>
<polygon fill="black" stroke="black" points="1248.74,-452.49 1242.07,-444.26 1242.15,-454.85 1248.74,-452.49"/>
</g>
<!-- ZENO -->
<g id="node34" class="node">
<title>ZENO</title>
<polygon fill="none" stroke="black" points="1079,-284 985,-284 985,-232 1079,-232 1079,-284"/>
<text text-anchor="middle" x="1032" y="-264" font-family="Times New Roman,serif" font-size="20.00">ZENO</text>
<text text-anchor="middle" x="1032" y="-242" font-family="Times New Roman,serif" font-size="20.00">of Citium</text>
</g>
<!-- Menedemus&#45;&gt;ZENO -->
<g id="edge51" class="edge">
<title>Menedemus&#45;&gt;ZENO</title>
<path fill="none" stroke="black" d="M1220.62,-391.87C1209.01,-370.42 1189.86,-339.96 1166,-320 1143.49,-301.16 1114.21,-286.95 1088.77,-277.01"/>
<polygon fill="black" stroke="black" points="1089.82,-273.66 1079.23,-273.4 1087.34,-280.21 1089.82,-273.66"/>
</g>
<!-- 58(at)&#45;&gt;EPICURUS -->
<g id="edge21" class="edge">
<title>58(at)&#45;&gt;EPICURUS</title>
<path fill="none" stroke="black" d="M189.31,-319.69C198.6,-309.19 210.62,-295.61 220.92,-283.96"/>
<polygon fill="black" stroke="black" points="223.73,-286.07 227.73,-276.26 218.48,-281.43 223.73,-286.07"/>
</g>
<!-- 78(mth) -->
<g id="node27" class="node">
<title>78(mth)</title>
<polygon fill="none" stroke="black" points="698.5,-436 615.5,-436 615.5,-400 698.5,-400 698.5,-436"/>
<text text-anchor="middle" x="657" y="-413" font-family="Times New Roman,serif" font-size="20.00">78(mth)</text>
</g>
<!-- Eudoxus&#45;&gt;78(mth) -->
<g id="edge23" class="edge">
<title>Eudoxus&#45;&gt;78(mth)</title>
<path fill="none" stroke="black" d="M691.23,-479.69C685.54,-469.59 678.24,-456.65 671.84,-445.31"/>
<polygon fill="black" stroke="black" points="674.7,-443.25 666.74,-436.26 668.6,-446.69 674.7,-443.25"/>
</g>
<!-- 80(mth) -->
<g id="node28" class="node">
<title>80(mth)</title>
<polygon fill="none" stroke="black" points="654.5,-356 571.5,-356 571.5,-320 654.5,-320 654.5,-356"/>
<text text-anchor="middle" x="613" y="-333" font-family="Times New Roman,serif" font-size="20.00">80(mth)</text>
</g>
<!-- 78(mth)&#45;&gt;80(mth) -->
<g id="edge24" class="edge">
<title>78(mth)&#45;&gt;80(mth)</title>
<path fill="none" stroke="black" d="M647.23,-399.69C641.54,-389.59 634.24,-376.65 627.84,-365.31"/>
<polygon fill="black" stroke="black" points="630.7,-363.25 622.74,-356.26 624.6,-366.69 630.7,-363.25"/>
</g>
<!-- 80(mth)&#45;&gt;ARCESILAUS -->
<g id="edge25" class="edge">
<title>80(mth)&#45;&gt;ARCESILAUS</title>
<path fill="none" stroke="black" d="M614.11,-319.69C614.74,-309.89 615.54,-297.42 616.25,-286.33"/>
<polygon fill="black" stroke="black" points="619.75,-286.47 616.89,-276.26 612.76,-286.02 619.75,-286.47"/>
</g>
<!-- ARCESILAUS&#45;&gt;CHRYSIPPUS -->
<g id="edge44" class="edge">
<title>ARCESILAUS&#45;&gt;CHRYSIPPUS</title>
<path fill="none" stroke="black" d="M626.63,-239.88C647.34,-198.82 699.95,-94.46 724.72,-45.34"/>
<polygon fill="black" stroke="black" points="727.91,-46.79 729.29,-36.28 721.66,-43.63 727.91,-46.79"/>
</g>
<!-- 97(Ac) -->
<g id="node42" class="node">
<title>97(Ac)</title>
<polygon fill="none" stroke="black" points="775,-188 701,-188 701,-152 775,-152 775,-188"/>
<text text-anchor="middle" x="738" y="-165" font-family="Times New Roman,serif" font-size="20.00">97(Ac)</text>
</g>
<!-- ARCESILAUS&#45;&gt;97(Ac) -->
<g id="edge41" class="edge">
<title>ARCESILAUS&#45;&gt;97(Ac)</title>
<path fill="none" stroke="black" d="M642,-239.8C660.31,-226.68 685.72,-208.47 705.8,-194.07"/>
<polygon fill="black" stroke="black" points="707.96,-196.84 714.05,-188.17 703.88,-191.15 707.96,-196.84"/>
</g>
<!-- Speusippus(Ac)&#45;&gt;Xenocrates(Ac) -->
<g id="edge29" class="edge">
<title>Speusippus(Ac)&#45;&gt;Xenocrates(Ac)</title>
<path fill="none" stroke="black" d="M580,-631.69C580,-621.89 580,-609.42 580,-598.33"/>
<polygon fill="black" stroke="black" points="583.5,-598.26 580,-588.26 576.5,-598.26 583.5,-598.26"/>
</g>
<!-- Polemon(Ac) -->
<g id="node33" class="node">
<title>Polemon(Ac)</title>
<polygon fill="none" stroke="black" points="583,-436 457,-436 457,-400 583,-400 583,-436"/>
<text text-anchor="middle" x="520" y="-413" font-family="Times New Roman,serif" font-size="20.00">Polemon(Ac)</text>
</g>
<!-- Xenocrates(Ac)&#45;&gt;Polemon(Ac) -->
<g id="edge30" class="edge">
<title>Xenocrates(Ac)&#45;&gt;Polemon(Ac)</title>
<path fill="none" stroke="black" d="M573.12,-551.79C562.72,-525.8 542.92,-476.3 530.65,-445.63"/>
<polygon fill="black" stroke="black" points="533.77,-443.99 526.8,-436.01 527.27,-446.59 533.77,-443.99"/>
</g>
<!-- Polemon(Ac)&#45;&gt;ZENO -->
<g id="edge31" class="edge">
<title>Polemon(Ac)&#45;&gt;ZENO</title>
<path fill="none" stroke="black" d="M576.43,-399.99C586.57,-397.16 597.07,-394.38 607,-392 689.31,-372.29 713.56,-382.33 794,-356 829.52,-344.37 835.59,-334.6 870,-320 904.6,-305.32 944.06,-290.43 975.37,-279.03"/>
<polygon fill="black" stroke="black" points="976.6,-282.31 984.81,-275.61 974.21,-275.72 976.6,-282.31"/>
</g>
<!-- 87(Ac) -->
<g id="node40" class="node">
<title>87(Ac)</title>
<polygon fill="none" stroke="black" points="553,-356 479,-356 479,-320 553,-320 553,-356"/>
<text text-anchor="middle" x="516" y="-333" font-family="Times New Roman,serif" font-size="20.00">87(Ac)</text>
</g>
<!-- Polemon(Ac)&#45;&gt;87(Ac) -->
<g id="edge77" class="edge">
<title>Polemon(Ac)&#45;&gt;87(Ac)</title>
<path fill="none" stroke="black" stroke-width="2" d="M518.85,-394.64C518.32,-384.25 517.69,-371.92 517.15,-361.51"/>
<polygon fill="black" stroke="black" stroke-width="2" points="524.05,-398.43 514.07,-398.95 513.97,-396.95 523.95,-396.44 524.05,-398.43"/>
<polyline fill="none" stroke="black" stroke-width="2" points="519.11,-399.69 518.86,-394.7 "/>
<polygon fill="black" stroke="black" stroke-width="2" points="511.94,-357.52 521.93,-357 522.03,-359 512.05,-359.51 511.94,-357.52"/>
<polyline fill="none" stroke="black" stroke-width="2" points="516.89,-356.26 517.14,-361.26 "/>
</g>
<!-- 68(Ac) -->
<g id="node54" class="node">
<title>68(Ac)</title>
<polygon fill="none" stroke="black" points="457,-356 383,-356 383,-320 457,-320 457,-356"/>
<text text-anchor="middle" x="420" y="-333" font-family="Times New Roman,serif" font-size="20.00">68(Ac)</text>
</g>
<!-- Polemon(Ac)&#45;&gt;68(Ac) -->
<g id="edge66" class="edge">
<title>Polemon(Ac)&#45;&gt;68(Ac)</title>
<path fill="none" stroke="black" stroke-dasharray="1,5" d="M497.81,-399.69C483.82,-388.78 465.59,-374.56 450.29,-362.62"/>
<polygon fill="black" stroke="black" points="452.17,-359.65 442.13,-356.26 447.86,-365.17 452.17,-359.65"/>
</g>
<!-- ZENO&#45;&gt;Ariston -->
<g id="edge58" class="edge">
<title>ZENO&#45;&gt;Ariston</title>
<path fill="none" stroke="black" d="M987.04,-231.89C969.88,-222.31 950.14,-211.28 932.2,-201.27"/>
<polygon fill="black" stroke="black" points="933.45,-197.96 923.01,-196.14 930.04,-204.07 933.45,-197.96"/>
</g>
<!-- ZENO&#45;&gt;Cleanthes(St) -->
<g id="edge59" class="edge">
<title>ZENO&#45;&gt;Cleanthes(St)</title>
<path fill="none" stroke="black" d="M1015.28,-231.79C998.84,-207.9 972.31,-171.67 945,-144 934.52,-133.38 921.93,-122.93 910.51,-114.14"/>
<polygon fill="black" stroke="black" points="912.54,-111.29 902.45,-108.07 908.33,-116.88 912.54,-111.29"/>
</g>
<!-- 50(Cr) -->
<g id="node36" class="node">
<title>50(Cr)</title>
<polygon fill="none" stroke="black" points="276.5,-588 205.5,-588 205.5,-552 276.5,-552 276.5,-588"/>
<text text-anchor="middle" x="241" y="-565" font-family="Times New Roman,serif" font-size="20.00">50(Cr)</text>
</g>
<!-- 48(Cr)&#45;&gt;50(Cr) -->
<g id="edge33" class="edge">
<title>48(Cr)&#45;&gt;50(Cr)</title>
<path fill="none" stroke="black" d="M232.44,-631.69C233.82,-621.89 235.58,-609.42 237.15,-598.33"/>
<polygon fill="black" stroke="black" points="240.63,-598.65 238.57,-588.26 233.7,-597.68 240.63,-598.65"/>
</g>
<!-- 51(Cr) -->
<g id="node37" class="node">
<title>51(Cr)</title>
<polygon fill="none" stroke="black" points="288.5,-516 217.5,-516 217.5,-480 288.5,-480 288.5,-516"/>
<text text-anchor="middle" x="253" y="-493" font-family="Times New Roman,serif" font-size="20.00">51(Cr)</text>
</g>
<!-- 50(Cr)&#45;&gt;51(Cr) -->
<g id="edge34" class="edge">
<title>50(Cr)&#45;&gt;51(Cr)</title>
<path fill="none" stroke="black" d="M243.97,-551.7C245.29,-543.98 246.88,-534.71 248.35,-526.11"/>
<polygon fill="black" stroke="black" points="251.83,-526.55 250.07,-516.1 244.93,-525.37 251.83,-526.55"/>
</g>
<!-- Hegesius(Cr) -->
<g id="node55" class="node">
<title>Hegesius(Cr)</title>
<polygon fill="none" stroke="black" points="432,-436 310,-436 310,-400 432,-400 432,-436"/>
<text text-anchor="middle" x="371" y="-413" font-family="Times New Roman,serif" font-size="20.00">Hegesius(Cr)</text>
</g>
<!-- 51(Cr)&#45;&gt;Hegesius(Cr) -->
<g id="edge67" class="edge">
<title>51(Cr)&#45;&gt;Hegesius(Cr)</title>
<path fill="none" stroke="black" stroke-dasharray="1,5" d="M278.9,-479.88C295.88,-468.66 318.28,-453.85 336.73,-441.65"/>
<polygon fill="black" stroke="black" points="338.75,-444.51 345.16,-436.08 334.89,-438.67 338.75,-444.51"/>
</g>
<!-- 52(Cr) -->
<g id="node39" class="node">
<title>52(Cr)</title>
<polygon fill="none" stroke="black" points="388.5,-588 317.5,-588 317.5,-552 388.5,-552 388.5,-588"/>
<text text-anchor="middle" x="353" y="-565" font-family="Times New Roman,serif" font-size="20.00">52(Cr)</text>
</g>
<!-- 49(Cr)&#45;&gt;52(Cr) -->
<g id="edge36" class="edge">
<title>49(Cr)&#45;&gt;52(Cr)</title>
<path fill="none" stroke="black" d="M326.55,-631.69C330.9,-621.69 336.48,-608.91 341.38,-597.65"/>
<polygon fill="black" stroke="black" points="344.69,-598.83 345.48,-588.26 338.27,-596.03 344.69,-598.83"/>
</g>
<!-- Theodorus(Cr) -->
<g id="node56" class="node">
<title>Theodorus(Cr)</title>
<polygon fill="none" stroke="black" points="445,-516 307,-516 307,-480 445,-480 445,-516"/>
<text text-anchor="middle" x="376" y="-493" font-family="Times New Roman,serif" font-size="20.00">Theodorus(Cr)</text>
</g>
<!-- 52(Cr)&#45;&gt;Theodorus(Cr) -->
<g id="edge68" class="edge">
<title>52(Cr)&#45;&gt;Theodorus(Cr)</title>
<path fill="none" stroke="black" stroke-dasharray="1,5" d="M358.69,-551.7C361.25,-543.9 364.33,-534.51 367.18,-525.83"/>
<polygon fill="black" stroke="black" points="370.58,-526.7 370.38,-516.1 363.93,-524.51 370.58,-526.7"/>
</g>
<!-- 87(Ac)&#45;&gt;ARCESILAUS -->
<g id="edge37" class="edge">
<title>87(Ac)&#45;&gt;ARCESILAUS</title>
<path fill="none" stroke="black" d="M538.38,-319.88C552.73,-308.91 571.55,-294.52 587.29,-282.48"/>
<polygon fill="black" stroke="black" points="589.85,-284.93 595.67,-276.08 585.6,-279.37 589.85,-284.93"/>
</g>
<!-- 88(Ac)&#45;&gt;ARCESILAUS -->
<g id="edge40" class="edge">
<title>88(Ac)&#45;&gt;ARCESILAUS</title>
<path fill="none" stroke="black" d="M719.47,-319.88C700.59,-308.55 675.64,-293.58 655.2,-281.32"/>
<polygon fill="black" stroke="black" points="656.84,-278.22 646.46,-276.08 653.24,-284.22 656.84,-278.22"/>
</g>
<!-- 88(Ac)&#45;&gt;97(Ac) -->
<g id="edge42" class="edge">
<title>88(Ac)&#45;&gt;97(Ac)</title>
<path fill="none" stroke="black" d="M746.97,-319.86C745.24,-291.16 741.74,-233.13 739.66,-198.61"/>
<polygon fill="black" stroke="black" points="743.14,-198.07 739.04,-188.3 736.15,-198.49 743.14,-198.07"/>
</g>
<!-- 97(Ac)&#45;&gt;CHRYSIPPUS -->
<g id="edge43" class="edge">
<title>97(Ac)&#45;&gt;CHRYSIPPUS</title>
<path fill="none" stroke="black" d="M738,-151.79C738,-125.91 738,-76.73 738,-46.03"/>
<polygon fill="black" stroke="black" points="741.5,-46.01 738,-36.01 734.5,-46.01 741.5,-46.01"/>
</g>
<!-- (Demosthenes) -->
<g id="node44" class="node">
<title>(Demosthenes)</title>
<polygon fill="none" stroke="black" points="977.5,-516 838.5,-516 838.5,-480 977.5,-480 977.5,-516"/>
<text text-anchor="middle" x="908" y="-493" font-family="Times New Roman,serif" font-size="20.00">(Demosthenes)</text>
</g>
<!-- Eubulides(Mg)&#45;&gt;(Demosthenes) -->
<g id="edge46" class="edge">
<title>Eubulides(Mg)&#45;&gt;(Demosthenes)</title>
<path fill="none" stroke="black" d="M1033.39,-551.88C1010.6,-542.26 981.97,-530.19 957.83,-520.01"/>
<polygon fill="black" stroke="black" points="959.05,-516.73 948.48,-516.07 956.33,-523.18 959.05,-516.73"/>
</g>
<!-- 62(Mg) -->
<g id="node45" class="node">
<title>62(Mg)</title>
<polygon fill="none" stroke="black" points="1199,-516 1121,-516 1121,-480 1199,-480 1199,-516"/>
<text text-anchor="middle" x="1160" y="-493" font-family="Times New Roman,serif" font-size="20.00">62(Mg)</text>
</g>
<!-- Eubulides(Mg)&#45;&gt;62(Mg) -->
<g id="edge47" class="edge">
<title>Eubulides(Mg)&#45;&gt;62(Mg)</title>
<path fill="none" stroke="black" d="M1095.26,-551.7C1106.09,-542.88 1119.42,-532.03 1131.16,-522.47"/>
<polygon fill="black" stroke="black" points="1133.44,-525.13 1138.99,-516.1 1129.02,-519.7 1133.44,-525.13"/>
</g>
<!-- Stilpo(Mg) -->
<g id="node46" class="node">
<title>Stilpo(Mg)</title>
<polygon fill="none" stroke="black" points="1102.5,-516 995.5,-516 995.5,-480 1102.5,-480 1102.5,-516"/>
<text text-anchor="middle" x="1049" y="-493" font-family="Times New Roman,serif" font-size="20.00">Stilpo(Mg)</text>
</g>
<!-- Eubulides(Mg)&#45;&gt;Stilpo(Mg) -->
<g id="edge48" class="edge">
<title>Eubulides(Mg)&#45;&gt;Stilpo(Mg)</title>
<path fill="none" stroke="black" d="M1067.82,-551.7C1065,-543.81 1061.61,-534.3 1058.48,-525.55"/>
<polygon fill="black" stroke="black" points="1061.77,-524.34 1055.11,-516.1 1055.18,-526.7 1061.77,-524.34"/>
</g>
<!-- 62(Mg)&#45;&gt;ZENO -->
<g id="edge52" class="edge">
<title>62(Mg)&#45;&gt;ZENO</title>
<path fill="none" stroke="black" d="M1199.34,-483.34C1239.68,-469.15 1296.95,-448.41 1300,-444 1313.13,-424.98 1310.73,-412.47 1300,-392 1259.21,-314.15 1155.27,-281.11 1089.47,-267.65"/>
<polygon fill="black" stroke="black" points="1089.74,-264.14 1079.25,-265.66 1088.4,-271.01 1089.74,-264.14"/>
</g>
<!-- Diodorus
Cronus(Mg) -->
<g id="node47" class="node">
<title>Diodorus
Cronus(Mg)</title>
<polygon fill="none" stroke="black" points="1157,-444 1041,-444 1041,-392 1157,-392 1157,-444"/>
<text text-anchor="middle" x="1099" y="-424" font-family="Times New Roman,serif" font-size="20.00">Diodorus</text>
<text text-anchor="middle" x="1099" y="-402" font-family="Times New Roman,serif" font-size="20.00">Cronus(Mg)</text>
</g>
<!-- 62(Mg)&#45;&gt;Diodorus
Cronus(Mg) -->
<g id="edge53" class="edge">
<title>62(Mg)&#45;&gt;Diodorus
Cronus(Mg)</title>
<path fill="none" stroke="black" d="M1146.46,-479.69C1140.16,-471.64 1132.45,-461.77 1125.09,-452.36"/>
<polygon fill="black" stroke="black" points="1127.67,-449.98 1118.75,-444.26 1122.16,-454.29 1127.67,-449.98"/>
</g>
<!-- Stilpo(Mg)&#45;&gt;PYRRHO -->
<g id="edge69" class="edge">
<title>Stilpo(Mg)&#45;&gt;PYRRHO</title>
<path fill="none" stroke="black" stroke-dasharray="1,5" d="M995.39,-481.54C992.56,-480.96 989.75,-480.44 987,-480 685.59,-431.35 598.29,-513.51 301,-444 296.25,-442.89 291.39,-441.41 286.61,-439.72"/>
<polygon fill="black" stroke="black" points="287.56,-436.33 276.97,-436.01 285.05,-442.87 287.56,-436.33"/>
</g>
<!-- Stilpo(Mg)&#45;&gt;Menedemus -->
<g id="edge49" class="edge">
<title>Stilpo(Mg)&#45;&gt;Menedemus</title>
<path fill="none" stroke="black" d="M1089.38,-479.88C1111.71,-470.42 1140.04,-458.41 1165.62,-447.56"/>
<polygon fill="black" stroke="black" points="1167.07,-450.75 1174.91,-443.63 1164.34,-444.31 1167.07,-450.75"/>
</g>
<!-- Stilpo(Mg)&#45;&gt;ZENO -->
<g id="edge50" class="edge">
<title>Stilpo(Mg)&#45;&gt;ZENO</title>
<path fill="none" stroke="black" d="M1041.93,-479.67C1038.16,-469.47 1033.91,-456.22 1032,-444 1023.93,-392.45 1026.11,-331.82 1028.77,-294.4"/>
<polygon fill="black" stroke="black" points="1032.29,-294.26 1029.56,-284.03 1025.31,-293.73 1032.29,-294.26"/>
</g>
<!-- Stilpo(Mg)&#45;&gt;Diodorus
Cronus(Mg) -->
<g id="edge78" class="edge">
<title>Stilpo(Mg)&#45;&gt;Diodorus
Cronus(Mg)</title>
<path fill="none" stroke="black" stroke-width="2" d="M1062.85,-475.39C1068.17,-467.1 1074.33,-457.48 1080.05,-448.57"/>
<polygon fill="black" stroke="black" stroke-width="2" points="1064.85,-481.55 1056.43,-476.15 1057.51,-474.47 1065.93,-479.86 1064.85,-481.55"/>
<polyline fill="none" stroke="black" stroke-width="2" points="1060.1,-479.69 1062.79,-475.48 "/>
<polygon fill="black" stroke="black" stroke-width="2" points="1078.06,-442.4 1086.48,-447.8 1085.4,-449.48 1076.98,-444.08 1078.06,-442.4"/>
<polyline fill="none" stroke="black" stroke-width="2" points="1082.81,-444.26 1080.11,-448.47 "/>
</g>
<!-- Diodorus
Cronus(Mg)&#45;&gt;ZENO -->
<g id="edge56" class="edge">
<title>Diodorus
Cronus(Mg)&#45;&gt;ZENO</title>
<path fill="none" stroke="black" d="M1086.61,-391.96C1081.31,-381 1075.17,-367.94 1070,-356 1061.17,-335.6 1052.06,-312.43 1044.97,-293.85"/>
<polygon fill="black" stroke="black" points="1048.18,-292.43 1041.36,-284.32 1041.63,-294.91 1048.18,-292.43"/>
</g>
<!-- 91(Mg) -->
<g id="node48" class="node">
<title>91(Mg)</title>
<polygon fill="none" stroke="black" points="1157,-356 1079,-356 1079,-320 1157,-320 1157,-356"/>
<text text-anchor="middle" x="1118" y="-333" font-family="Times New Roman,serif" font-size="20.00">91(Mg)</text>
</g>
<!-- Diodorus
Cronus(Mg)&#45;&gt;91(Mg) -->
<g id="edge54" class="edge">
<title>Diodorus
Cronus(Mg)&#45;&gt;91(Mg)</title>
<path fill="none" stroke="black" d="M1105.12,-391.89C1107.1,-383.75 1109.31,-374.68 1111.33,-366.38"/>
<polygon fill="black" stroke="black" points="1114.79,-366.95 1113.76,-356.41 1107.99,-365.3 1114.79,-366.95"/>
</g>
<!-- 91(Mg)&#45;&gt;ZENO -->
<g id="edge55" class="edge">
<title>91(Mg)&#45;&gt;ZENO</title>
<path fill="none" stroke="black" d="M1098.91,-319.69C1089.68,-311.31 1078.28,-300.97 1067.52,-291.22"/>
<polygon fill="black" stroke="black" points="1069.61,-288.38 1059.85,-284.26 1064.9,-293.57 1069.61,-288.38"/>
</g>
<!-- Timon&#45;&gt;ARCESILAUS -->
<g id="edge80" class="edge">
<title>Timon&#45;&gt;ARCESILAUS</title>
<path fill="none" stroke="black" stroke-width="2" d="M362.17,-323.55C366.16,-322.31 370.15,-321.11 374,-320 428.86,-304.2 491.34,-288.62 539.34,-277.17"/>
<polygon fill="black" stroke="black" stroke-width="2" points="359.59,-329.61 356.59,-320.07 358.5,-319.47 361.5,-329.01 359.59,-329.61"/>
<polyline fill="none" stroke="black" stroke-width="2" points="357.14,-325.14 361.91,-323.64 "/>
<polygon fill="black" stroke="black" stroke-width="2" points="542.1,-271.37 544.42,-281.1 542.47,-281.56 540.15,-271.83 542.1,-271.37"/>
<polyline fill="none" stroke="black" stroke-width="2" points="544.23,-276 539.37,-277.16 "/>
</g>
<!-- Cleanthes(St)&#45;&gt;CHRYSIPPUS -->
<g id="edge60" class="edge">
<title>Cleanthes(St)&#45;&gt;CHRYSIPPUS</title>
<path fill="none" stroke="black" d="M843.75,-71.88C824.94,-62.47 801.42,-50.71 781.33,-40.67"/>
<polygon fill="black" stroke="black" points="782.89,-37.53 772.38,-36.19 779.76,-43.79 782.89,-37.53"/>
</g>
<!-- (x) -->
<g id="node52" class="node">
<title>(x)</title>
<polygon fill="none" stroke="black" points="126,-588 72,-588 72,-552 126,-552 126,-588"/>
<text text-anchor="middle" x="99" y="-565" font-family="Times New Roman,serif" font-size="20.00">(x)</text>
</g>
<!-- 39&#45;&gt;(x) -->
<g id="edge62" class="edge">
<title>39&#45;&gt;(x)</title>
<path fill="none" stroke="black" stroke-dasharray="1,5" d="M97.22,-711.79C97.56,-684.48 98.24,-630.99 98.65,-598.38"/>
<polygon fill="black" stroke="black" points="102.16,-598.23 98.78,-588.19 95.16,-598.14 102.16,-598.23"/>
</g>
<!-- (x)&#45;&gt;58(at) -->
<g id="edge63" class="edge">
<title>(x)&#45;&gt;58(at)</title>
<path fill="none" stroke="black" stroke-dasharray="1,5" d="M103.46,-551.84C108.21,-533.84 116.14,-504.78 124,-480 136.74,-439.87 153.39,-394.03 163.89,-365.8"/>
<polygon fill="black" stroke="black" points="167.24,-366.83 167.47,-356.24 160.69,-364.38 167.24,-366.83"/>
</g>
<!-- 68(Ac)&#45;&gt;EPICURUS -->
<g id="edge70" class="edge">
<title>68(Ac)&#45;&gt;EPICURUS</title>
<path fill="none" stroke="black" stroke-dasharray="1,5" d="M382.89,-320.65C356.21,-308.89 319.98,-292.93 291.08,-280.19"/>
<polygon fill="black" stroke="black" points="292.15,-276.83 281.59,-276 289.33,-283.24 292.15,-276.83"/>
</g>
</g>
</svg>
